<svg width="32" height="32" viewBox="0 0 32 32" fill="none" xmlns="http://www.w3.org/2000/svg">
<path d="M0 9.375C0 4.19733 4.19733 0 9.375 0H22.625C27.8027 0 32 4.19733 32 9.375V22.625C32 27.8027 27.8027 32 22.625 32H9.375C4.19733 32 0 27.8027 0 22.625V9.375Z" fill="black"/>
<path d="M12.6676 12.5968C13.0304 12.5966 13.3839 12.7121 13.676 12.9271C13.9682 13.1422 14.1842 13.4455 14.2919 13.792C14.3995 14.1383 14.3932 14.51 14.2745 14.8527C14.1557 15.1955 13.9302 15.4912 13.6312 15.6968L13.5175 15.769V18.5461C13.5172 18.7624 13.4344 18.9705 13.286 19.1279C13.1372 19.2854 12.9337 19.3808 12.7174 19.3935C12.5013 19.4062 12.2884 19.3357 12.1223 19.1968C11.9562 19.0578 11.8491 18.86 11.8235 18.6449L11.8177 18.5461V15.769C11.4933 15.5821 11.2399 15.2931 11.0965 14.9473C10.9531 14.6015 10.9274 14.2183 11.0242 13.8567C11.1211 13.495 11.3346 13.1749 11.6318 12.947C11.9289 12.7192 12.2932 12.5965 12.6676 12.5968Z" fill="#F6F1F4"/>
<path fill-rule="evenodd" clip-rule="evenodd" d="M12.0709 7.66252C12.4555 7.51832 12.8797 7.51832 13.2644 7.66252L19.2137 9.89351C19.5376 10.0149 19.8167 10.2326 20.0138 10.5168C20.2109 10.8012 20.3167 11.1394 20.3167 11.4854V16.0437C20.3168 17.4642 19.9214 18.8566 19.1747 20.065C18.4279 21.2733 17.3592 22.25 16.0888 22.8853L13.2378 24.3103C13.0608 24.3989 12.8656 24.4456 12.6676 24.4456C12.4696 24.4456 12.2745 24.3989 12.0974 24.3103L9.24642 22.8853C7.97598 22.25 6.90728 21.2733 6.16053 20.065C5.41382 18.8566 5.01845 17.4642 5.01848 16.0437V11.4854C5.01848 11.1394 5.12433 10.8012 5.32142 10.5168C5.51854 10.2326 5.79761 10.0149 6.12153 9.89351L12.0709 7.66252ZM6.71828 11.4854V16.0437C6.71849 17.1485 7.02627 18.2314 7.6072 19.1711C8.18812 20.1108 9.01936 20.8699 10.0075 21.3639L12.6676 22.696L15.3277 21.3656C16.3161 20.8714 17.1479 20.1119 17.7289 19.1719C18.3097 18.232 18.6171 17.1486 18.6169 16.0437V11.4854L12.6676 9.25443L6.71828 11.4854Z" fill="#F6F1F4"/>
<path d="M26.9815 24.4456H17.7239V22.6562H26.9815V24.4456Z" fill="#F6F1F4"/>
</svg>
